<svg xmlns="http://www.w3.org/2000/svg" xmlns:xlink="http://www.w3.org/1999/xlink" width="500" zoomAndPan="magnify" viewBox="0 0 375 374.999991" height="500" preserveAspectRatio="xMidYMid meet" version="1.0"><defs><g/><clipPath id="e1cf3d7ce0"><path d="M 47 47.414062 L 327.828125 47.414062 L 327.828125 327.59375 L 47 327.59375 Z M 47 47.414062 " clip-rule="nonzero"/></clipPath><clipPath id="dc27256520"><path d="M 327.828125 187.503906 C 327.828125 110.132812 265 47.414062 187.496094 47.414062 C 109.992188 47.414062 47.164062 110.132812 47.164062 187.503906 C 47.164062 264.871094 109.992188 327.59375 187.496094 327.59375 C 265 327.59375 327.828125 264.871094 327.828125 187.503906 Z M 327.828125 187.503906 " clip-rule="nonzero"/></clipPath><clipPath id="1ec8a80c83"><path d="M 0.0390625 0.414062 L 280.828125 0.414062 L 280.828125 280.59375 L 0.0390625 280.59375 Z M 0.0390625 0.414062 " clip-rule="nonzero"/></clipPath><clipPath id="b278bbafdd"><path d="M 280.828125 140.503906 C 280.828125 63.132812 218 0.414062 140.496094 0.414062 C 62.992188 0.414062 0.164062 63.132812 0.164062 140.503906 C 0.164062 217.871094 62.992188 280.59375 140.496094 280.59375 C 218 280.59375 280.828125 217.871094 280.828125 140.503906 Z M 280.828125 140.503906 " clip-rule="nonzero"/></clipPath><clipPath id="c667541159"><rect x="0" width="281" y="0" height="281"/></clipPath><clipPath id="3b3e8e336b"><path d="M 53.558594 54.398438 L 321.308594 54.398438 L 321.308594 162 L 53.558594 162 Z M 53.558594 54.398438 " clip-rule="nonzero"/></clipPath><clipPath id="10d3280a04"><path d="M 53.558594 226 L 321.308594 226 L 321.308594 320.648438 L 53.558594 320.648438 Z M 53.558594 226 " clip-rule="nonzero"/></clipPath><clipPath id="3afcdedcf5"><path d="M 149 135 L 266 135 L 266 297 L 149 297 Z M 149 135 " clip-rule="nonzero"/></clipPath><clipPath id="3e78dbc545"><path d="M 105.734375 244.117188 L 225.585938 124.261719 L 301.957031 200.628906 L 182.101562 320.484375 Z M 105.734375 244.117188 " clip-rule="nonzero"/></clipPath><clipPath id="f34b97a0e2"><path d="M 105.734375 244.117188 L 225.585938 124.261719 L 301.957031 200.628906 L 182.101562 320.484375 Z M 105.734375 244.117188 " clip-rule="nonzero"/></clipPath></defs><g clip-path="url(#e1cf3d7ce0)"><g clip-path="url(#dc27256520)"><g transform="matrix(1, 0, 0, 1, 47, 47)"><g clip-path="url(#c667541159)"><g clip-path="url(#1ec8a80c83)"><g clip-path="url(#b278bbafdd)"><path fill="#172815" d="M 280.828125 0.414062 L 280.828125 280.59375 L 0.648438 280.59375 L 0.648438 0.414062 Z M 280.828125 0.414062 " fill-opacity="1" fill-rule="nonzero"/></g></g></g></g></g></g><g clip-path="url(#3b3e8e336b)"><path fill="#ca3c25" d="M 291.675781 151.332031 C 294.59375 127.941406 296.898438 106.972656 298.058594 96.101562 C 288.585938 99.386719 278.414062 101.167969 267.835938 101.167969 C 233.402344 101.167969 203.375 82.324219 187.5 54.390625 C 171.621094 82.324219 141.597656 101.167969 107.164062 101.167969 C 96.582031 101.167969 86.410156 99.386719 76.9375 96.101562 C 78.097656 106.972656 80.402344 127.941406 83.320312 151.332031 L 53.613281 157.710938 L 53.613281 161.371094 L 103.589844 161.371094 C 102.992188 156.761719 102.398438 152.085938 101.8125 147.367188 C 100.675781 138.203125 99.570312 128.90625 98.511719 119.683594 C 101.382812 119.902344 104.269531 120.015625 107.164062 120.015625 C 137.808594 120.015625 166.765625 107.304688 187.5 85.679688 C 208.234375 107.304688 237.1875 120.015625 267.835938 120.015625 C 270.726562 120.015625 273.617188 119.902344 276.488281 119.683594 C 275.429688 128.90625 274.320312 138.203125 273.179688 147.367188 C 272.59375 152.085938 272.003906 156.761719 271.402344 161.371094 L 321.386719 161.371094 L 321.386719 157.710938 Z M 291.675781 151.332031 " fill-opacity="1" fill-rule="nonzero"/></g><g clip-path="url(#10d3280a04)"><path fill="#ca3c25" d="M 261.457031 226.613281 C 260.09375 233.703125 258.761719 239.613281 257.507812 243.984375 C 257.328125 244.605469 257.152344 245.203125 256.972656 245.761719 C 255.972656 248.960938 250.457031 260.863281 221.640625 279.957031 C 208.730469 288.507812 195.730469 295.476562 187.5 299.640625 C 179.265625 295.476562 166.265625 288.507812 153.355469 279.957031 C 124.542969 260.863281 119.019531 248.953125 118.015625 245.761719 C 117.839844 245.203125 117.664062 244.605469 117.480469 243.980469 C 116.222656 239.609375 114.898438 233.699219 113.535156 226.613281 L 53.613281 226.613281 L 53.613281 230.273438 L 96.980469 239.582031 C 98.011719 244.222656 99.035156 248.230469 100.039062 251.417969 C 109.929688 282.863281 175.679688 315.035156 186.714844 320.242188 C 187.023438 320.378906 187.28125 320.507812 187.5 320.605469 C 187.71875 320.507812 187.972656 320.378906 188.285156 320.242188 C 199.320312 315.035156 265.066406 282.863281 274.953125 251.417969 C 275.957031 248.230469 276.984375 244.222656 278.011719 239.582031 L 321.386719 230.273438 L 321.386719 226.613281 Z M 261.457031 226.613281 " fill-opacity="1" fill-rule="nonzero"/></g><g clip-path="url(#3afcdedcf5)"><g clip-path="url(#3e78dbc545)"><g clip-path="url(#f34b97a0e2)"><path fill="#fffbbd" d="M 149.871094 287.109375 C 149.910156 286.414062 150.199219 285.746094 150.691406 285.226562 C 151.167969 284.722656 151.816406 284.378906 152.515625 284.265625 C 153.339844 284.128906 154.152344 283.839844 154.933594 283.402344 C 155.136719 283.289062 155.34375 283.164062 155.539062 283.03125 C 156.371094 282.476562 157.183594 281.738281 157.953125 280.839844 C 158.429688 280.28125 158.890625 279.664062 159.328125 279 C 160.1875 277.703125 161.007812 276.160156 161.769531 274.410156 C 162.0625 273.742188 162.355469 273.027344 162.632812 272.292969 C 163.207031 270.78125 163.761719 269.089844 164.28125 267.273438 L 164.289062 267.257812 C 164.394531 266.878906 164.507812 266.476562 164.617188 266.070312 C 165.101562 264.273438 165.550781 262.359375 165.957031 260.382812 C 166.121094 259.601562 166.277344 258.804688 166.421875 258.015625 C 166.664062 256.714844 166.890625 255.363281 167.101562 254 C 167.273438 252.886719 167.429688 251.75 167.574219 250.621094 L 167.582031 250.582031 C 167.585938 250.550781 167.589844 250.519531 167.59375 250.484375 C 167.742188 249.300781 167.929688 248.097656 168.148438 246.910156 C 168.339844 245.851562 168.566406 244.769531 168.816406 243.703125 C 169.105469 242.472656 169.433594 241.226562 169.796875 239.996094 L 170.65625 237.109375 L 170.640625 237.085938 L 170.691406 236.878906 C 170.726562 236.734375 170.761719 236.585938 170.796875 236.445312 C 171.289062 234.476562 171.828125 232.566406 172.398438 230.773438 C 172.578125 230.210938 172.769531 229.644531 172.976562 229.035156 C 173.230469 228.304688 173.488281 227.589844 173.746094 226.910156 C 174.003906 226.234375 174.261719 225.582031 174.515625 224.972656 C 175.035156 223.714844 175.59375 222.46875 176.175781 221.273438 C 176.535156 220.539062 176.898438 219.820312 177.261719 219.140625 C 177.796875 218.136719 178.359375 217.136719 178.984375 216.085938 C 179.398438 215.390625 179.851562 214.652344 180.371094 213.832031 C 180.890625 213.011719 181.40625 212.226562 181.839844 211.566406 C 182.011719 211.304688 182.183594 211.042969 182.355469 210.785156 C 182.550781 210.496094 182.742188 210.203125 182.933594 209.917969 C 183.371094 209.25 183.84375 208.542969 184.304688 207.824219 C 184.679688 207.246094 185.011719 206.722656 185.316406 206.222656 C 186.046875 205.046875 186.675781 203.949219 187.246094 202.871094 C 187.570312 202.253906 187.859375 201.667969 188.136719 201.074219 C 188.363281 200.589844 188.582031 200.101562 188.785156 199.613281 C 189.019531 199.0625 189.277344 198.429688 189.550781 197.734375 C 189.800781 197.097656 190.074219 196.386719 190.410156 195.496094 C 190.6875 194.761719 190.96875 193.992188 191.253906 193.210938 C 191.433594 192.71875 191.605469 192.242188 191.8125 191.667969 C 192.152344 190.710938 192.453125 189.855469 192.730469 189.050781 C 192.9375 188.460938 193.117188 187.933594 193.285156 187.445312 L 193.289062 187.4375 C 193.570312 186.613281 193.855469 185.773438 194.136719 184.9375 C 194.183594 184.792969 194.234375 184.644531 194.28125 184.5 C 194.320312 184.070312 194.320312 183.695312 194.246094 183.488281 C 194.21875 183.410156 194.183594 183.382812 194.152344 183.371094 C 193.972656 183.285156 193.523438 183.453125 193.164062 183.589844 C 193.074219 183.621094 192.988281 183.65625 192.902344 183.683594 C 192.710938 183.753906 192.503906 183.707031 192.367188 183.5625 C 192.222656 183.414062 192.183594 183.199219 192.261719 183.003906 C 193.734375 179.371094 194.796875 175.554688 195.414062 171.65625 C 194.488281 171.824219 193.605469 172.191406 192.863281 172.722656 C 192.722656 172.824219 192.53125 172.8125 192.40625 172.695312 C 192.277344 172.574219 192.25 172.382812 192.339844 172.230469 C 194.082031 169.320312 196.003906 166.46875 198.054688 163.757812 L 196.503906 163.789062 C 196.363281 163.792969 196.238281 163.71875 196.175781 163.59375 C 196.109375 163.464844 196.121094 163.316406 196.207031 163.199219 L 201.996094 155.417969 C 202.425781 154.839844 202.828125 154.226562 202.65625 153.597656 C 202.546875 153.210938 202.011719 152.933594 201.648438 152.980469 C 201.464844 153.003906 201.289062 152.933594 201.175781 152.792969 C 201.0625 152.652344 201.027344 152.460938 201.085938 152.285156 C 201.617188 150.683594 203.027344 149.007812 204.394531 147.386719 C 205.832031 145.679688 207.324219 143.910156 207.652344 142.34375 C 207.683594 142.191406 207.789062 142.0625 207.933594 142.003906 C 208.070312 141.945312 208.226562 141.960938 208.347656 142.039062 C 208.554688 142.171875 208.871094 142.289062 209.140625 142.226562 C 209.320312 142.183594 209.464844 142.070312 209.582031 141.875 L 209.597656 141.847656 L 209.625 141.824219 C 210.46875 141.023438 211.164062 140.097656 211.691406 139.070312 C 211.765625 138.929688 211.910156 138.859375 212.0625 138.890625 C 212.210938 138.925781 212.3125 139.046875 212.320312 139.199219 C 212.339844 139.511719 212.457031 139.824219 212.652344 140.078125 C 213.347656 139.601562 214.074219 138.808594 214.777344 138.039062 C 215.5625 137.179688 216.371094 136.296875 217.179688 135.800781 C 217.3125 135.722656 217.472656 135.714844 217.605469 135.789062 C 217.738281 135.859375 217.824219 135.992188 217.828125 136.144531 C 217.851562 136.734375 217.796875 137.691406 217.734375 138.527344 C 219.222656 136.417969 222.988281 136.441406 225.625 136.460938 C 226.699219 136.464844 227.621094 136.472656 228.109375 136.335938 L 228.382812 136.261719 L 228.414062 136.542969 C 228.480469 137.125 227.5 138.019531 225.820312 139.339844 C 227.164062 139.382812 228.425781 139.796875 229.902344 140.792969 L 230.621094 141.28125 C 230.996094 141.535156 231.433594 141.683594 231.882812 141.71875 L 236.085938 142.035156 C 236.445312 142.0625 236.785156 142.238281 237.019531 142.515625 L 237.023438 142.515625 C 237.105469 142.617188 237.171875 142.726562 237.21875 142.835938 L 237.222656 142.84375 C 237.253906 142.917969 237.277344 142.992188 237.296875 143.0625 L 237.453125 143.707031 C 237.503906 143.914062 237.535156 144.125 237.542969 144.339844 L 237.542969 144.363281 C 237.546875 144.488281 237.539062 144.617188 237.527344 144.75 C 237.535156 144.757812 237.542969 144.769531 237.550781 144.78125 L 237.578125 144.816406 C 238.257812 145.753906 238.9375 147.15625 238.320312 148.542969 C 238.144531 148.933594 238.234375 149.558594 238.332031 150.21875 C 238.472656 151.207031 238.632812 152.324219 237.976562 153.128906 C 237.5 153.714844 236.667969 154.035156 235.441406 154.109375 C 235.292969 154.160156 234.644531 154.398438 233.734375 154.808594 C 233.261719 155.25 233.066406 155.546875 233.050781 155.65625 C 233.367188 155.894531 233.800781 155.976562 234.222656 156.058594 C 234.265625 156.066406 234.3125 156.074219 234.355469 156.082031 C 237.371094 156.667969 238.8125 158.238281 240.386719 160.230469 C 240.484375 160.351562 240.503906 160.519531 240.433594 160.664062 C 240.367188 160.808594 240.230469 160.898438 240.074219 160.90625 L 237.152344 161.003906 C 237.0625 161.007812 237.015625 161.070312 237 161.097656 C 236.980469 161.125 236.945312 161.195312 236.980469 161.277344 C 237.660156 162.910156 238.449219 164.523438 239.328125 166.078125 C 239.414062 166.226562 239.421875 166.410156 239.347656 166.566406 C 239.28125 166.726562 239.144531 166.835938 238.980469 166.871094 C 238.433594 166.992188 237.835938 166.945312 237.292969 166.738281 C 237.203125 166.703125 237.136719 166.75 237.109375 166.773438 C 237.089844 166.792969 237.023438 166.863281 237.058594 166.96875 C 237.167969 167.34375 237.488281 167.839844 237.851562 168.359375 L 239.609375 166.441406 L 246.304688 159.132812 L 246.320312 159.117188 L 246.339844 159.101562 C 247.902344 157.957031 249.871094 157.597656 251.738281 158.105469 L 257.898438 157.789062 L 257.9375 157.800781 C 258.816406 158.046875 259.59375 158.59375 260.121094 159.335938 L 260.164062 159.398438 C 260.992188 160.5625 261.140625 162.042969 260.554688 163.351562 C 260.136719 164.289062 259.382812 165.023438 258.4375 165.414062 C 257.464844 165.816406 256.355469 165.820312 255.386719 165.425781 L 250.632812 165.316406 L 250.589844 165.296875 C 249.925781 165.019531 249.15625 165.242188 248.75 165.835938 L 244.714844 173.328125 L 248.625 171.457031 C 250.125 170.714844 252.613281 170.351562 254.617188 170.058594 C 255.175781 169.976562 255.703125 169.902344 256.128906 169.828125 L 256.136719 169.824219 L 261.246094 169.261719 C 262.765625 169.089844 264.226562 169.878906 264.882812 171.230469 C 264.890625 171.242188 264.894531 171.25 264.898438 171.261719 C 264.933594 171.332031 264.96875 171.410156 265.007812 171.503906 L 265.011719 171.511719 C 265.039062 171.582031 265.070312 171.65625 265.097656 171.726562 C 265.65625 173.230469 265.539062 174.910156 264.769531 176.328125 C 264.003906 177.746094 262.660156 178.765625 261.085938 179.121094 L 260.855469 179.171875 C 260.265625 179.304688 259.027344 179.078125 257.589844 178.816406 C 256.683594 178.652344 255.75 178.480469 254.960938 178.398438 C 254.574219 178.359375 254.175781 178.265625 253.707031 178.101562 C 253.074219 177.878906 251.941406 178.296875 251.460938 178.796875 L 251.445312 178.8125 L 245.769531 182.875 L 244.890625 183.5 L 240.710938 186.492188 L 240.023438 186.984375 L 239.953125 187.035156 C 240.117188 188.050781 240.320312 189.421875 240.421875 190.101562 C 240.449219 190.269531 240.375 190.433594 240.230469 190.527344 C 240.09375 190.617188 239.917969 190.621094 239.78125 190.535156 C 239.28125 190.222656 238.027344 189.488281 237.121094 189.351562 C 237.078125 189.34375 237.046875 189.363281 237.03125 189.378906 C 236.996094 189.402344 236.976562 189.441406 236.972656 189.484375 C 236.9375 190.023438 237.015625 190.574219 237.101562 191.15625 C 237.136719 191.390625 237.171875 191.628906 237.199219 191.863281 C 237.25 192.324219 237.824219 193.570312 238.738281 195.191406 C 238.835938 195.363281 238.820312 195.578125 238.703125 195.742188 C 238.695312 195.757812 238.683594 195.769531 238.671875 195.785156 C 238.554688 195.921875 238.375 195.984375 238.199219 195.953125 C 237.09375 195.761719 235.15625 195.371094 234.214844 194.867188 L 234.40625 196.011719 C 234.4375 196.207031 234.367188 196.40625 234.21875 196.539062 C 234.070312 196.667969 233.871094 196.714844 233.683594 196.660156 C 232.175781 196.214844 230.753906 195.367188 229.585938 194.214844 C 229.238281 193.875 228.925781 193.515625 228.640625 193.140625 C 227.3125 196.191406 225.949219 199.160156 224.59375 201.976562 C 224.464844 202.242188 224.332031 202.511719 224.199219 202.785156 L 224.179688 202.832031 C 223.566406 204.082031 222.953125 205.308594 222.355469 206.476562 C 222.207031 206.769531 222.058594 207.054688 221.917969 207.320312 C 220.535156 209.980469 219.191406 212.386719 217.921875 214.46875 C 217.761719 214.730469 217.601562 214.988281 217.414062 215.289062 C 215.523438 218.316406 213.78125 220.648438 212.234375 222.222656 L 212.234375 222.226562 L 212.203125 222.257812 C 211.828125 222.636719 211.460938 222.976562 211.109375 223.265625 C 211.097656 223.277344 211.085938 223.285156 211.074219 223.296875 C 211.066406 223.304688 211.054688 223.3125 211.046875 223.320312 L 211.042969 223.324219 C 209.914062 224.242188 207.878906 226.128906 206.207031 227.8125 C 206.019531 227.996094 205.824219 228.195312 205.625 228.402344 C 204.714844 229.332031 204.015625 230.109375 203.59375 230.648438 L 203.589844 230.652344 L 203.585938 230.660156 C 203.566406 230.679688 201.792969 232.679688 200.167969 234.609375 C 200.667969 235.902344 201.027344 237.289062 201.234375 238.734375 C 201.324219 238.960938 201.410156 239.195312 201.488281 239.425781 C 201.730469 240.144531 201.933594 240.910156 202.09375 241.707031 C 202.324219 242.855469 202.464844 244.105469 202.515625 245.421875 C 202.539062 246.003906 202.542969 246.609375 202.53125 247.21875 C 202.5 248.875 202.34375 250.632812 202.058594 252.589844 C 201.980469 253.140625 201.890625 253.707031 201.78125 254.320312 C 201.316406 256.988281 200.691406 259.597656 200.199219 261.574219 C 200.085938 262.03125 199.96875 262.480469 199.855469 262.925781 C 199.746094 263.367188 199.632812 263.800781 199.523438 264.226562 C 198.800781 267.054688 198.171875 269.5 197.871094 271.488281 L 198.554688 273.378906 L 198.585938 273.472656 L 201.53125 281.59375 C 201.566406 281.675781 201.605469 281.769531 201.644531 281.863281 C 201.9375 282.558594 202.339844 283.511719 202.824219 283.894531 C 207.394531 287.511719 207.875 291.160156 207.753906 293.015625 C 207.664062 294.4375 207.183594 295.515625 206.664062 296.113281 C 206.511719 296.289062 206.355469 296.421875 206.207031 296.511719 C 205.859375 296.71875 205.433594 296.757812 204.941406 296.621094 C 203.136719 296.125 200.738281 293.433594 198.675781 289.597656 C 197.636719 287.664062 196.296875 285.648438 195 283.757812 C 194.832031 283.511719 194.664062 283.269531 194.5 283.027344 L 194.144531 282.511719 C 192.773438 280.515625 191.464844 278.617188 190.582031 276.992188 L 190.242188 281.6875 C 190.246094 281.855469 190.242188 282.050781 190.234375 282.261719 C 190.210938 282.949219 190.183594 283.894531 190.535156 284.253906 C 192.570312 286.328125 193.671875 288.390625 193.800781 290.386719 C 193.933594 292.402344 193.03125 293.78125 192.453125 294.445312 C 192.449219 294.453125 192.445312 294.457031 192.441406 294.460938 L 192.441406 294.464844 L 192.414062 294.492188 C 192.214844 294.71875 192 294.925781 191.769531 295.105469 C 191.296875 295.484375 190.8125 295.726562 190.398438 295.789062 C 189.226562 295.972656 188.203125 293.878906 187.019531 291.453125 C 186.371094 290.121094 185.699219 288.746094 185.003906 287.769531 C 183.433594 285.570312 182.535156 282.382812 182.253906 278.023438 C 182.222656 277.558594 182.199219 277.082031 182.183594 276.617188 C 182.140625 275.410156 182.136719 274.269531 182.136719 273.261719 C 182.136719 272.644531 182.132812 272.0625 182.125 271.558594 C 182.121094 271.4375 182.121094 271.328125 182.125 271.234375 C 182.132812 270.933594 182.164062 270.628906 182.214844 270.328125 C 182.320312 269.726562 182.511719 269.140625 182.78125 268.578125 C 183.683594 266.71875 183.601562 263.3125 182.535156 258.453125 C 182.429688 257.976562 182.3125 257.476562 182.1875 256.960938 C 181.753906 255.1875 181.195312 253.226562 180.53125 251.132812 C 180.488281 251.007812 180.449219 250.882812 180.410156 250.757812 C 180.378906 250.660156 180.347656 250.5625 180.316406 250.464844 L 180.195312 250.410156 L 180.234375 250.316406 C 179.960938 249.9375 179.691406 249.585938 179.441406 249.273438 C 179.078125 248.820312 178.738281 248.429688 178.429688 248.121094 C 178.347656 248.035156 178.054688 247.664062 176.5 245.46875 C 176.300781 245.71875 176.117188 245.988281 175.957031 246.269531 C 175.585938 246.917969 175.332031 247.625 175.203125 248.367188 C 175.164062 248.601562 175.136719 248.839844 175.121094 249.082031 C 175.050781 250.332031 174.953125 251.578125 174.832031 252.78125 C 174.742188 253.695312 174.644531 254.539062 174.535156 255.359375 C 174.261719 257.457031 173.910156 259.515625 173.488281 261.484375 C 173.347656 262.128906 173.199219 262.78125 173.042969 263.421875 C 172.496094 265.644531 171.847656 267.792969 171.113281 269.8125 L 171.109375 269.824219 C 170.96875 270.203125 170.828125 270.582031 170.683594 270.945312 L 170.679688 270.953125 C 169.9375 272.871094 169.089844 274.71875 168.167969 276.441406 C 167.753906 277.222656 167.316406 277.984375 166.871094 278.707031 C 165.75 280.539062 164.523438 282.230469 163.21875 283.738281 C 162.761719 284.265625 162.292969 284.777344 161.828125 285.25 L 161.757812 285.320312 C 160.714844 286.363281 159.527344 287.230469 158.230469 287.894531 C 157.507812 288.265625 156.753906 288.574219 155.988281 288.804688 C 155.335938 289.007812 154.660156 289.15625 153.980469 289.253906 C 152.28125 289.496094 151.089844 289.316406 150.4375 288.71875 C 150.023438 288.335938 149.832031 287.792969 149.871094 287.109375 Z M 149.871094 287.109375 " fill-opacity="1" fill-rule="nonzero"/></g></g></g><g fill="#fffbbd" fill-opacity="1"><g transform="translate(117.331278, 198.093853)"><g><path d="M 32.0625 -63.84375 C 28.132812 -63.84375 24.425781 -62.96875 20.9375 -61.21875 C 17.445312 -59.476562 14.410156 -57.113281 11.828125 -54.125 C 9.242188 -51.132812 7.1875 -47.644531 5.65625 -43.65625 C 4.125 -39.664062 3.359375 -35.457031 3.359375 -31.03125 C 3.359375 -26.613281 4.140625 -22.410156 5.703125 -18.421875 C 7.265625 -14.429688 9.351562 -10.9375 11.96875 -7.9375 C 14.582031 -4.945312 17.601562 -2.578125 21.03125 -0.828125 C 24.457031 0.910156 28.039062 1.78125 31.78125 1.78125 C 34.769531 1.78125 37.585938 1.390625 40.234375 0.609375 C 42.890625 -0.171875 45.226562 -1.367188 47.25 -2.984375 C 49.28125 -4.609375 50.867188 -6.679688 52.015625 -9.203125 C 53.171875 -11.734375 53.75 -14.742188 53.75 -18.234375 L 53.75 -21.40625 L 61.890625 -21.40625 L 61.890625 -22.90625 L 34.125 -22.90625 L 34.125 -21.40625 L 44.125 -21.40625 L 44.125 -12.625 C 44.125 -11.125 43.96875 -9.625 43.65625 -8.125 C 43.34375 -6.632812 42.75 -5.28125 41.875 -4.0625 C 41.007812 -2.851562 39.78125 -1.859375 38.1875 -1.078125 C 36.59375 -0.296875 34.519531 0.09375 31.96875 0.09375 C 26.550781 0.09375 22.34375 -2.054688 19.34375 -6.359375 C 16.351562 -10.660156 14.859375 -17.046875 14.859375 -25.515625 L 14.859375 -37.015625 C 14.859375 -41.441406 15.28125 -45.242188 16.125 -48.421875 C 16.96875 -51.597656 18.148438 -54.195312 19.671875 -56.21875 C 21.203125 -58.25 23.007812 -59.75 25.09375 -60.71875 C 27.1875 -61.6875 29.507812 -62.171875 32.0625 -62.171875 C 36.613281 -62.171875 40.507812 -60.84375 43.75 -58.1875 C 46.988281 -55.539062 49.609375 -51.039062 51.609375 -44.6875 C 51.796875 -44.125 52.070312 -43.84375 52.4375 -43.84375 C 52.8125 -43.84375 53 -44.125 53 -44.6875 L 53 -62.359375 C 53 -63.035156 52.75 -63.375 52.25 -63.375 C 51.945312 -63.375 51.71875 -63.3125 51.5625 -63.1875 C 51.40625 -63.070312 51.203125 -62.890625 50.953125 -62.640625 L 46.921875 -58.609375 C 45.117188 -60.234375 42.921875 -61.507812 40.328125 -62.4375 C 37.742188 -63.375 34.988281 -63.84375 32.0625 -63.84375 Z M 32.0625 -63.84375 "/></g></g></g></svg>