<svg xmlns="http://www.w3.org/2000/svg" xmlns:xlink="http://www.w3.org/1999/xlink" width="500" zoomAndPan="magnify" viewBox="0 0 375 374.999991" height="500" preserveAspectRatio="xMidYMid meet" version="1.0"><defs><clipPath id="cf2bd5ed9d"><path d="M 56.789062 55 L 318.539062 55 L 318.539062 320 L 56.789062 320 Z M 56.789062 55 " clip-rule="nonzero"/></clipPath></defs><path fill="#fffbbd" d="M 268.679688 187.734375 C 268.679688 189.0625 268.644531 190.386719 268.582031 191.707031 C 268.515625 193.03125 268.417969 194.351562 268.289062 195.671875 C 268.160156 196.988281 267.996094 198.304688 267.804688 199.613281 C 267.609375 200.925781 267.382812 202.230469 267.125 203.527344 C 266.863281 204.828125 266.574219 206.121094 266.253906 207.40625 C 265.929688 208.691406 265.578125 209.964844 265.195312 211.234375 C 264.808594 212.5 264.394531 213.757812 263.945312 215.007812 C 263.5 216.253906 263.023438 217.488281 262.515625 218.714844 C 262.011719 219.9375 261.472656 221.148438 260.90625 222.34375 C 260.339844 223.542969 259.746094 224.726562 259.121094 225.894531 C 258.496094 227.0625 257.84375 228.214844 257.164062 229.351562 C 256.480469 230.488281 255.773438 231.605469 255.035156 232.707031 C 254.300781 233.808594 253.539062 234.890625 252.75 235.957031 C 251.960938 237.019531 251.144531 238.0625 250.304688 239.089844 C 249.464844 240.113281 248.597656 241.113281 247.710938 242.097656 C 246.820312 243.078125 245.90625 244.039062 244.96875 244.972656 C 244.035156 245.910156 243.074219 246.824219 242.09375 247.714844 C 241.109375 248.601562 240.109375 249.46875 239.085938 250.308594 C 238.058594 251.148438 237.015625 251.964844 235.953125 252.753906 C 234.886719 253.542969 233.804688 254.304688 232.703125 255.039062 C 231.601562 255.777344 230.484375 256.484375 229.347656 257.167969 C 228.210938 257.847656 227.058594 258.5 225.890625 259.125 C 224.722656 259.75 223.539062 260.34375 222.339844 260.910156 C 221.144531 261.476562 219.933594 262.015625 218.710938 262.519531 C 217.484375 263.027344 216.25 263.503906 215.003906 263.949219 C 213.753906 264.398438 212.496094 264.8125 211.230469 265.195312 C 209.960938 265.582031 208.6875 265.933594 207.402344 266.257812 C 206.117188 266.578125 204.824219 266.867188 203.523438 267.128906 C 202.226562 267.386719 200.921875 267.613281 199.609375 267.808594 C 198.300781 268 196.984375 268.164062 195.667969 268.292969 C 194.347656 268.421875 193.027344 268.519531 191.703125 268.585938 C 190.382812 268.648438 189.058594 268.683594 187.730469 268.683594 C 186.40625 268.683594 185.082031 268.648438 183.761719 268.585938 C 182.4375 268.519531 181.117188 268.421875 179.796875 268.292969 C 178.480469 268.164062 177.164062 268 175.855469 267.808594 C 174.542969 267.613281 173.238281 267.386719 171.941406 267.128906 C 170.640625 266.867188 169.347656 266.578125 168.0625 266.257812 C 166.777344 265.933594 165.503906 265.582031 164.234375 265.199219 C 162.96875 264.8125 161.710938 264.398438 160.460938 263.949219 C 159.214844 263.503906 157.980469 263.027344 156.753906 262.519531 C 155.53125 262.015625 154.320312 261.476562 153.125 260.910156 C 151.925781 260.34375 150.742188 259.75 149.574219 259.125 C 148.40625 258.5 147.253906 257.847656 146.117188 257.167969 C 144.980469 256.484375 143.863281 255.777344 142.761719 255.039062 C 141.660156 254.304688 140.578125 253.542969 139.511719 252.753906 C 138.449219 251.964844 137.40625 251.148438 136.378906 250.308594 C 135.355469 249.46875 134.351562 248.601562 133.371094 247.714844 C 132.390625 246.824219 131.429688 245.910156 130.496094 244.972656 C 129.558594 244.039062 128.644531 243.078125 127.753906 242.097656 C 126.863281 241.113281 126 240.113281 125.160156 239.089844 C 124.320312 238.0625 123.503906 237.019531 122.714844 235.957031 C 121.925781 234.890625 121.164062 233.808594 120.425781 232.707031 C 119.691406 231.605469 118.984375 230.488281 118.300781 229.351562 C 117.621094 228.214844 116.96875 227.0625 116.34375 225.894531 C 115.71875 224.726562 115.125 223.542969 114.558594 222.34375 C 113.992188 221.148438 113.453125 219.9375 112.949219 218.714844 C 112.441406 217.488281 111.964844 216.253906 111.515625 215.007812 C 111.070312 213.757812 110.65625 212.5 110.269531 211.234375 C 109.886719 209.964844 109.535156 208.691406 109.210938 207.40625 C 108.890625 206.121094 108.597656 204.828125 108.339844 203.527344 C 108.082031 202.230469 107.855469 200.925781 107.660156 199.613281 C 107.46875 198.304688 107.304688 196.988281 107.175781 195.671875 C 107.046875 194.351562 106.949219 193.03125 106.882812 191.707031 C 106.816406 190.386719 106.785156 189.0625 106.785156 187.734375 C 106.785156 186.410156 106.816406 185.085938 106.882812 183.765625 C 106.949219 182.441406 107.046875 181.121094 107.175781 179.800781 C 107.304688 178.484375 107.46875 177.167969 107.660156 175.859375 C 107.855469 174.546875 108.082031 173.242188 108.339844 171.945312 C 108.597656 170.644531 108.890625 169.351562 109.210938 168.066406 C 109.535156 166.78125 109.886719 165.507812 110.269531 164.238281 C 110.65625 162.972656 111.070312 161.714844 111.515625 160.464844 C 111.964844 159.21875 112.441406 157.984375 112.949219 156.757812 C 113.453125 155.535156 113.992188 154.324219 114.558594 153.128906 C 115.125 151.929688 115.71875 150.746094 116.34375 149.578125 C 116.96875 148.410156 117.621094 147.257812 118.300781 146.121094 C 118.984375 144.984375 119.691406 143.867188 120.425781 142.765625 C 121.164062 141.664062 121.925781 140.582031 122.714844 139.515625 C 123.503906 138.453125 124.320312 137.40625 125.160156 136.382812 C 126 135.359375 126.863281 134.355469 127.753906 133.375 C 128.644531 132.394531 129.558594 131.433594 130.496094 130.5 C 131.429688 129.5625 132.390625 128.648438 133.371094 127.757812 C 134.351562 126.867188 135.355469 126.003906 136.378906 125.164062 C 137.40625 124.324219 138.449219 123.507812 139.511719 122.71875 C 140.578125 121.929688 141.660156 121.167969 142.761719 120.429688 C 143.863281 119.695312 144.980469 118.988281 146.117188 118.304688 C 147.253906 117.625 148.40625 116.972656 149.574219 116.347656 C 150.742188 115.722656 151.925781 115.128906 153.125 114.5625 C 154.320312 113.996094 155.53125 113.457031 156.753906 112.953125 C 157.980469 112.445312 159.214844 111.96875 160.460938 111.519531 C 161.710938 111.074219 162.96875 110.660156 164.234375 110.273438 C 165.503906 109.890625 166.777344 109.539062 168.0625 109.214844 C 169.347656 108.894531 170.640625 108.601562 171.941406 108.34375 C 173.238281 108.085938 174.542969 107.859375 175.855469 107.664062 C 177.164062 107.472656 178.480469 107.308594 179.796875 107.179688 C 181.117188 107.050781 182.4375 106.953125 183.761719 106.886719 C 185.082031 106.820312 186.40625 106.789062 187.730469 106.789062 C 189.058594 106.789062 190.382812 106.820312 191.703125 106.886719 C 193.027344 106.953125 194.347656 107.050781 195.667969 107.179688 C 196.984375 107.308594 198.300781 107.472656 199.609375 107.664062 C 200.921875 107.859375 202.226562 108.085938 203.523438 108.34375 C 204.824219 108.601562 206.117188 108.894531 207.402344 109.214844 C 208.6875 109.539062 209.960938 109.890625 211.230469 110.273438 C 212.496094 110.660156 213.753906 111.074219 215.003906 111.519531 C 216.25 111.96875 217.484375 112.445312 218.710938 112.953125 C 219.933594 113.457031 221.144531 113.996094 222.339844 114.5625 C 223.539062 115.128906 224.722656 115.722656 225.890625 116.347656 C 227.058594 116.972656 228.210938 117.625 229.347656 118.304688 C 230.484375 118.988281 231.601562 119.695312 232.703125 120.429688 C 233.804688 121.167969 234.886719 121.929688 235.953125 122.71875 C 237.015625 123.507812 238.058594 124.324219 239.085938 125.164062 C 240.109375 126.003906 241.109375 126.867188 242.09375 127.757812 C 243.074219 128.648438 244.035156 129.5625 244.96875 130.5 C 245.90625 131.433594 246.820312 132.394531 247.710938 133.375 C 248.597656 134.355469 249.464844 135.359375 250.304688 136.382812 C 251.144531 137.40625 251.960938 138.453125 252.75 139.515625 C 253.539062 140.582031 254.300781 141.664062 255.035156 142.765625 C 255.773438 143.867188 256.480469 144.984375 257.164062 146.121094 C 257.84375 147.257812 258.496094 148.410156 259.121094 149.578125 C 259.746094 150.746094 260.339844 151.929688 260.90625 153.128906 C 261.472656 154.324219 262.011719 155.535156 262.515625 156.757812 C 263.023438 157.984375 263.5 159.21875 263.945312 160.464844 C 264.394531 161.714844 264.808594 162.972656 265.195312 164.238281 C 265.578125 165.507812 265.929688 166.78125 266.253906 168.066406 C 266.574219 169.351562 266.863281 170.644531 267.125 171.945312 C 267.382812 173.242188 267.609375 174.546875 267.804688 175.859375 C 267.996094 177.167969 268.160156 178.484375 268.289062 179.800781 C 268.417969 181.121094 268.515625 182.441406 268.582031 183.765625 C 268.644531 185.085938 268.679688 186.410156 268.679688 187.734375 Z M 268.679688 187.734375 " fill-opacity="1" fill-rule="nonzero"/><g clip-path="url(#cf2bd5ed9d)"><path fill="#fffbbd" d="M 285.597656 216.804688 L 298.734375 210.238281 L 293.882812 205.386719 C 292.761719 204.273438 292.273438 202.671875 292.574219 201.121094 C 292.867188 199.570312 293.921875 198.265625 295.371094 197.644531 L 318.488281 187.734375 L 295.371094 177.828125 C 293.921875 177.207031 292.871094 175.902344 292.574219 174.351562 C 292.273438 172.800781 292.761719 171.199219 293.882812 170.085938 L 298.734375 165.234375 L 285.597656 158.667969 C 284.042969 157.886719 283.035156 156.328125 282.96875 154.589844 C 282.902344 152.851562 283.78125 151.21875 285.273438 150.324219 L 298.519531 142.378906 L 286.789062 140.03125 C 285.140625 139.703125 283.792969 138.53125 283.230469 136.949219 C 282.667969 135.363281 282.988281 133.605469 284.0625 132.316406 L 296.347656 117.574219 L 275.105469 125.539062 C 273.25 126.246094 271.132812 125.703125 269.832031 124.1875 C 268.527344 122.679688 268.308594 120.511719 269.273438 118.765625 L 285.605469 89.367188 L 251.757812 106.292969 C 250.171875 107.085938 248.285156 106.933594 246.84375 105.898438 C 245.40625 104.867188 244.660156 103.117188 244.914062 101.359375 L 248.171875 78.574219 L 228.460938 91.710938 C 227 92.679688 225.117188 92.777344 223.578125 91.949219 C 222.03125 91.113281 221.0625 89.5 221.0625 87.742188 L 221.0625 70.140625 L 210.738281 85.625 C 209.796875 87.035156 208.148438 87.847656 206.484375 87.734375 C 204.789062 87.628906 203.277344 86.628906 202.515625 85.109375 L 187.730469 55.535156 L 172.949219 85.109375 C 172.1875 86.628906 170.675781 87.628906 168.980469 87.734375 C 167.316406 87.847656 165.667969 87.039062 164.722656 85.625 L 154.402344 70.140625 L 154.402344 87.742188 C 154.402344 89.5 153.433594 91.113281 151.886719 91.941406 C 150.339844 92.769531 148.464844 92.679688 147 91.703125 L 127.292969 78.566406 L 130.550781 101.355469 C 130.804688 103.109375 130.054688 104.855469 128.621094 105.894531 C 127.1875 106.933594 125.292969 107.085938 123.707031 106.289062 L 89.859375 89.363281 L 106.191406 118.761719 C 107.160156 120.507812 106.9375 122.667969 105.632812 124.183594 C 104.332031 125.691406 102.21875 126.242188 100.359375 125.535156 L 79.117188 117.570312 L 91.402344 132.3125 C 92.476562 133.601562 92.792969 135.363281 92.234375 136.945312 C 91.675781 138.53125 90.324219 139.703125 88.675781 140.023438 L 76.945312 142.371094 L 90.191406 150.320312 C 91.683594 151.214844 92.566406 152.847656 92.496094 154.585938 C 92.429688 156.324219 91.421875 157.882812 89.867188 158.660156 L 76.730469 165.226562 L 81.582031 170.082031 C 82.703125 171.195312 83.191406 172.792969 82.890625 174.347656 C 82.597656 175.898438 81.542969 177.203125 80.09375 177.824219 L 56.976562 187.734375 L 80.09375 197.644531 C 81.542969 198.265625 82.59375 199.570312 82.890625 201.121094 C 83.191406 202.671875 82.703125 204.273438 81.582031 205.386719 L 76.730469 210.238281 L 89.867188 216.804688 C 91.421875 217.585938 92.429688 219.144531 92.496094 220.882812 C 92.5625 222.621094 91.683594 224.253906 90.191406 225.148438 L 76.945312 233.09375 L 88.675781 235.441406 C 90.324219 235.769531 91.671875 236.941406 92.234375 238.523438 C 92.796875 240.109375 92.476562 241.867188 91.402344 243.15625 L 79.117188 257.898438 L 100.359375 249.933594 C 102.222656 249.230469 104.332031 249.769531 105.632812 251.285156 C 106.9375 252.792969 107.15625 254.960938 106.191406 256.707031 L 89.859375 286.105469 L 123.707031 269.179688 C 125.292969 268.382812 127.183594 268.539062 128.621094 269.574219 C 130.058594 270.605469 130.804688 272.355469 130.550781 274.109375 L 127.292969 296.898438 L 147 283.761719 C 148.464844 282.785156 150.34375 282.695312 151.886719 283.523438 C 153.433594 284.359375 154.402344 285.972656 154.402344 287.730469 L 154.402344 305.332031 L 164.722656 289.847656 C 165.609375 288.519531 167.101562 287.730469 168.6875 287.730469 C 168.785156 287.730469 168.886719 287.730469 168.980469 287.738281 C 170.675781 287.84375 172.1875 288.84375 172.949219 290.363281 L 187.730469 319.9375 L 202.515625 290.363281 C 203.277344 288.84375 204.789062 287.84375 206.484375 287.738281 C 208.15625 287.601562 209.796875 288.4375 210.738281 289.847656 L 221.0625 305.332031 L 221.0625 287.730469 C 221.0625 285.972656 222.03125 284.359375 223.578125 283.53125 C 225.121094 282.699219 227 282.792969 228.460938 283.765625 L 248.171875 296.90625 L 244.914062 274.117188 C 244.660156 272.363281 245.410156 270.617188 246.84375 269.578125 C 248.28125 268.539062 250.171875 268.386719 251.757812 269.183594 L 285.605469 286.109375 L 269.273438 256.710938 C 268.304688 254.964844 268.527344 252.804688 269.832031 251.289062 C 271.132812 249.78125 273.25 249.238281 275.105469 249.9375 L 296.347656 257.902344 L 284.0625 243.160156 C 282.988281 241.871094 282.671875 240.109375 283.230469 238.527344 C 283.789062 236.941406 285.140625 235.769531 286.789062 235.445312 L 298.519531 233.101562 L 285.273438 225.152344 C 283.78125 224.257812 282.898438 222.625 282.96875 220.886719 C 283.035156 219.148438 284.042969 217.585938 285.597656 216.804688 Z M 187.730469 278.207031 C 137.84375 278.207031 97.261719 237.625 97.261719 187.734375 C 97.261719 137.847656 137.84375 97.265625 187.730469 97.265625 C 237.621094 97.265625 278.203125 137.847656 278.203125 187.734375 C 278.203125 237.625 237.621094 278.207031 187.730469 278.207031 Z M 187.730469 278.207031 " fill-opacity="1" fill-rule="nonzero"/></g></svg>