<svg xmlns="http://www.w3.org/2000/svg" xmlns:xlink="http://www.w3.org/1999/xlink" width="500" zoomAndPan="magnify" viewBox="0 0 375 374.999991" height="500" preserveAspectRatio="xMidYMid meet" version="1.0"><defs><clipPath id="719e918773"><path d="M 77 83 L 295 83 L 295 300.640625 L 77 300.640625 Z M 77 83 " clip-rule="nonzero"/></clipPath><clipPath id="cc510a8823"><path d="M 165 76.390625 L 270 76.390625 L 270 180 L 165 180 Z M 165 76.390625 " clip-rule="nonzero"/></clipPath><clipPath id="99ccf37654"><path d="M 257 123 L 327.871094 123 L 327.871094 194 L 257 194 Z M 257 123 " clip-rule="nonzero"/></clipPath></defs><g clip-path="url(#719e918773)"><path fill="#fffbbd" d="M 175.523438 83.390625 C 151.265625 85.808594 129.003906 96.023438 111.246094 112.988281 C 67.769531 154.421875 66.1875 223.535156 107.664062 267.011719 C 117.5 277.308594 128.839844 285.226562 141.011719 290.773438 C 155.390625 297.398438 170.9375 300.691406 186.488281 300.691406 C 213.539062 300.691406 240.59375 290.730469 261.6875 270.636719 C 277.984375 255.046875 288.824219 235.414062 293.242188 213.574219 C 293.617188 211.695312 293.949219 209.820312 294.242188 207.902344 C 294.492188 206.070312 293.53125 204.277344 291.867188 203.484375 C 290.15625 202.734375 288.195312 203.152344 286.945312 204.527344 C 285.738281 205.945312 284.402344 207.277344 283.070312 208.570312 C 281.570312 209.988281 280.027344 211.363281 278.441406 212.65625 C 264.355469 224.160156 246.929688 230.414062 228.714844 230.414062 C 228.089844 230.414062 227.421875 230.371094 226.796875 230.371094 C 219.917969 230.203125 213.207031 229.164062 206.789062 227.328125 C 193.492188 223.535156 181.402344 216.238281 171.648438 205.984375 C 157.101562 190.769531 149.386719 170.804688 149.886719 149.753906 C 150.390625 128.703125 159.058594 109.113281 174.273438 94.5625 C 175.691406 93.230469 177.066406 91.980469 178.527344 90.8125 C 179.984375 89.6875 180.484375 87.6875 179.816406 85.976562 C 179.109375 84.269531 177.359375 83.226562 175.523438 83.390625 Z M 141.550781 149.546875 C 140.96875 172.804688 149.511719 194.898438 165.605469 211.738281 C 175.734375 222.367188 188.15625 230.121094 201.785156 234.496094 C 190.65625 249.960938 173.441406 269.636719 149.679688 285.394531 C 136.425781 280.265625 124.128906 272.179688 113.707031 261.257812 C 75.398438 221.117188 76.859375 157.296875 117 119.03125 C 130.214844 106.402344 146.054688 97.855469 163.4375 93.8125 C 149.761719 109.195312 142.050781 128.746094 141.550781 149.546875 Z M 141.550781 149.546875 " fill-opacity="1" fill-rule="nonzero"/></g><g clip-path="url(#cc510a8823)"><path fill="#fffbbd" d="M 165.980469 127.953125 C 165.980469 129.746094 167.105469 131.328125 168.8125 131.914062 L 202.410156 143.210938 L 213.664062 176.808594 C 214.25 178.472656 215.832031 179.640625 217.625 179.640625 C 219.417969 179.640625 221.003906 178.472656 221.585938 176.808594 L 232.882812 143.210938 L 266.480469 131.914062 C 268.148438 131.328125 269.3125 129.746094 269.3125 127.953125 C 269.3125 126.160156 268.148438 124.578125 266.480469 124.035156 L 232.882812 112.738281 L 221.585938 79.140625 C 221.003906 77.429688 219.417969 76.304688 217.625 76.304688 C 215.832031 76.304688 214.25 77.429688 213.664062 79.140625 L 202.410156 112.738281 L 168.8125 124.035156 C 167.105469 124.578125 165.980469 126.160156 165.980469 127.953125 Z M 165.980469 127.953125 " fill-opacity="1" fill-rule="nonzero"/></g><g clip-path="url(#99ccf37654)"><path fill="#fffbbd" d="M 324.796875 154.714844 L 303.789062 147.628906 L 296.742188 126.617188 C 296.160156 124.953125 294.574219 123.785156 292.78125 123.785156 C 290.988281 123.785156 289.40625 124.953125 288.824219 126.617188 L 281.777344 147.628906 L 260.769531 154.714844 C 259.058594 155.257812 257.933594 156.882812 257.933594 158.632812 C 257.933594 160.425781 259.058594 162.050781 260.769531 162.59375 L 281.777344 169.679688 L 288.824219 190.6875 C 289.40625 192.355469 290.988281 193.523438 292.78125 193.523438 C 294.574219 193.523438 296.160156 192.355469 296.742188 190.6875 L 303.789062 169.679688 L 324.796875 162.59375 C 326.503906 162.050781 327.628906 160.425781 327.628906 158.632812 C 327.628906 156.882812 326.503906 155.257812 324.796875 154.714844 Z M 324.796875 154.714844 " fill-opacity="1" fill-rule="nonzero"/></g></svg>